<svg version="1.1" viewBox="0.0 0.0 80.0 80.0" fill="none" stroke="none" stroke-linecap="square" stroke-miterlimit="10" xmlns:xlink="http://www.w3.org/1999/xlink" xmlns="http://www.w3.org/2000/svg"><clipPath id="p.0"><path d="m0 0l80.0 0l0 80.0l-80.0 0l0 -80.0z" clip-rule="nonzero"/></clipPath><g clip-path="url(#p.0)"><path fill="#000000" fill-opacity="0.0" d="m0 0l80.0 0l0 80.0l-80.0 0z" fill-rule="evenodd"/><path fill="#000000" fill-opacity="0.0" d="m8.572179 37.34646l16.95654 -5.5070972l-8.095942 -15.884276l15.884275 8.0959425l5.5070953 -16.95654l5.5070953 16.95654l15.884277 -8.0959425l-8.095943 15.884276l16.956543 5.5070972l-16.956543 5.5070915l8.095943 15.884277l-15.884277 -8.095943l-5.5070953 16.956543l-5.5070953 -16.956543l-15.884275 8.095943l8.095942 -15.884277z" fill-rule="evenodd"/><path stroke="#000000" stroke-width="1.0" stroke-linejoin="round" stroke-linecap="butt" d="m8.572179 37.34646l16.95654 -5.5070972l-8.095942 -15.884276l15.884275 8.0959425l5.5070953 -16.95654l5.5070953 16.95654l15.884277 -8.0959425l-8.095943 15.884276l16.956543 5.5070972l-16.956543 5.5070915l8.095943 15.884277l-15.884277 -8.095943l-5.5070953 16.956543l-5.5070953 -16.956543l-15.884275 8.095943l8.095942 -15.884277z" fill-rule="evenodd"/></g></svg>